{"title":"Australian Survivor - S03E08","uid":15767907,"size":403502817,"categoryP":"video","categoryS":"tv_shows","magnet":"?xt=urn:btih:7a4259ed7586b4c4e77729dc25f9e2843aa97beb&amp;dn=Australian+Survivor+-+S03E08&amp;tr=udp%3A%2F%2Ftracker.leechers-paradise.org%3A6969&amp;tr=udp%3A%2F%2Fzer0day.ch%3A1337&amp;tr=udp%3A%2F%2Fopen.demonii.com%3A1337&amp;tr=udp%3A%2F%2Ftracker.coppersurfer.tk%3A6969&amp;tr=udp%3A%2F%2Fexodus.desync.com%3A6969","seeders":55,"leechers":9,"uploader":"Bullrout","files":1,"time":1473176893,"description":"Australian Survivor - S03E08\r\n\r\nLast night's losing tribe is on edge after another tense elimination. One contestant is feeling increasingly insecure about their spot in the tribe. Will they be eliminated next?\r\n\r\nComplete name                            : Australian Survivor - S03E08.mp4\r\nFormat                                   : MPEG-4\r\nFormat profile                           : Base Media / Version 2\r\nCodec ID                                 : mp42 (mp42/isom/avc1)\r\nFile size                                : 385 MiB\r\nDuration                                 : 48mn 8s\r\nOverall bit rate mode                    : Variable\r\nOverall bit rate                         : 1 117 Kbps\r\n\r\nVideo\r\nID                                       : 2\r\nFormat                                   : AVC\r\nFormat/Info                              : Advanced Video Codec\r\nFormat profile                           :   \r\nFormat settings, CABAC                   : Yes\r\nFormat settings, ReFrames                : 3 frames\r\nCodec ID                                 : avc1\r\nCodec ID/Info                            : Advanced Video Coding\r\nDuration                                 : 48mn 8s\r\nBit rate mode                            : Variable\r\nBit rate                                 : 986 Kbps\r\nMaximum bit rate                         : 1 000 Kbps\r\nWidth                                    : 720 pixels\r\nHeight                                   : 404 pixels\r\nDisplay aspect ratio                     : 16:9\r\nOriginal display aspect ratio            : 16:9\r\nFrame rate mode                          : Constant\r\nFrame rate                               : 25.000 fps\r\nStandard                                 : PAL\r\nColor space                              : YUV\r\nChroma subsampling                       : 4:2:0\r\nBit depth                                : 8 bits\r\nScan type                                : Progressive\r\nBits/(Pixel*Frame)                       : 0.136\r\nStream size                              : 339 MiB (88%)\r\nWriting library                          : x264 core 112\r\nColor range                              : Limited\r\nColor primaries                          : BT.601 PAL\r\nTransfer characteristics                 : BT.470 System B, BT.470 System G\r\nMatrix coefficients                      : BT.601\r\n\r\nAudio\r\nID                                       : 1\r\nFormat                                   : AAC\r\nFormat/Info                              : Advanced Audio Codec\r\nFormat profile                           : LC\r\nCodec ID                                 : 40\r\nDuration                                 : 48mn 8s\r\nBit rate mode                            : Variable\r\nBit rate                                 : 128 Kbps\r\nMaximum bit rate                         : 576 Kbps\r\nChannel(s)                               : 2 channels\r\nChannel positions                        : Front: L R\r\nSampling rate                            : 48.0 KHz\r\nFrame rate                               : 46.875 fps (1024 spf)\r\nCompression mode                         : Lossy\r\nStream size                              : 44.1 MiB (11%)","torrent":{"xt":"urn:btih:7a4259ed7586b4c4e77729dc25f9e2843aa97beb","amp;dn":"Australian+Survivor+-+S03E08","amp;tr":["udp%3A%2F%2Ftracker.leechers-paradise.org%3A6969","udp%3A%2F%2Fzer0day.ch%3A1337","udp%3A%2F%2Fopen.demonii.com%3A1337","udp%3A%2F%2Ftracker.coppersurfer.tk%3A6969","udp%3A%2F%2Fexodus.desync.com%3A6969"],"infoHash":"7a4259ed7586b4c4e77729dc25f9e2843aa97beb","infoHashBuffer":{"type":"Buffer","data":[122,66,89,237,117,134,180,196,231,119,41,220,37,249,226,132,58,169,123,235]},"announce":[],"urlList":[]}}